<mxfile host="app.diagrams.net" modified="2023-10-29T13:50:13.357Z" agent="Mozilla/5.0 (Windows NT 10.0; Win64; x64) AppleWebKit/537.36 (KHTML, like Gecko) Chrome/118.0.0.0 Safari/537.36" etag="KU68Xzn2zYF5IPyOvpnq" version="22.0.8" type="device">
  <diagram name="페이지-1" id="d6vBU8dQ3OIi_ZeA8_BH">
    <mxGraphModel dx="1050" dy="534" grid="1" gridSize="10" guides="1" tooltips="1" connect="1" arrows="1" fold="1" page="1" pageScale="1" pageWidth="827" pageHeight="1169" math="0" shadow="0">
      <root>
        <mxCell id="0" />
        <mxCell id="1" parent="0" />
        <mxCell id="alfVSQqw5zvKO4nv5Tz3-42" value="USER" style="swimlane;fontStyle=0;childLayout=stackLayout;horizontal=1;startSize=26;horizontalStack=0;resizeParent=1;resizeParentMax=0;resizeLast=0;collapsible=1;marginBottom=0;align=center;fontSize=14;" parent="1" vertex="1">
          <mxGeometry x="120" y="350" width="160" height="160" as="geometry" />
        </mxCell>
        <mxCell id="alfVSQqw5zvKO4nv5Tz3-43" value="PK,FR | USER_ID" style="text;strokeColor=none;fillColor=none;spacingLeft=4;spacingRight=4;overflow=hidden;rotatable=0;points=[[0,0.5],[1,0.5]];portConstraint=eastwest;fontSize=12;whiteSpace=wrap;html=1;" parent="alfVSQqw5zvKO4nv5Tz3-42" vertex="1">
          <mxGeometry y="26" width="160" height="33" as="geometry" />
        </mxCell>
        <mxCell id="alfVSQqw5zvKO4nv5Tz3-44" value="CK | EMAIL" style="text;strokeColor=none;fillColor=none;spacingLeft=4;spacingRight=4;overflow=hidden;rotatable=0;points=[[0,0.5],[1,0.5]];portConstraint=eastwest;fontSize=12;whiteSpace=wrap;html=1;" parent="alfVSQqw5zvKO4nv5Tz3-42" vertex="1">
          <mxGeometry y="59" width="160" height="30" as="geometry" />
        </mxCell>
        <mxCell id="alfVSQqw5zvKO4nv5Tz3-45" value="NAME" style="text;strokeColor=none;fillColor=none;spacingLeft=4;spacingRight=4;overflow=hidden;rotatable=0;points=[[0,0.5],[1,0.5]];portConstraint=eastwest;fontSize=12;whiteSpace=wrap;html=1;" parent="alfVSQqw5zvKO4nv5Tz3-42" vertex="1">
          <mxGeometry y="89" width="160" height="30" as="geometry" />
        </mxCell>
        <mxCell id="alfVSQqw5zvKO4nv5Tz3-48" value="PASSWORD" style="text;strokeColor=none;fillColor=none;spacingLeft=4;spacingRight=4;overflow=hidden;rotatable=0;points=[[0,0.5],[1,0.5]];portConstraint=eastwest;fontSize=12;whiteSpace=wrap;html=1;" parent="alfVSQqw5zvKO4nv5Tz3-42" vertex="1">
          <mxGeometry y="119" width="160" height="41" as="geometry" />
        </mxCell>
        <mxCell id="alfVSQqw5zvKO4nv5Tz3-58" value="ARTICLE" style="swimlane;fontStyle=0;childLayout=stackLayout;horizontal=1;startSize=26;horizontalStack=0;resizeParent=1;resizeParentMax=0;resizeLast=0;collapsible=1;marginBottom=0;align=center;fontSize=14;" parent="1" vertex="1">
          <mxGeometry x="380" y="290" width="160" height="160" as="geometry" />
        </mxCell>
        <mxCell id="alfVSQqw5zvKO4nv5Tz3-60" value="PK | ARTICLE_ID" style="text;strokeColor=none;fillColor=none;spacingLeft=4;spacingRight=4;overflow=hidden;rotatable=0;points=[[0,0.5],[1,0.5]];portConstraint=eastwest;fontSize=12;whiteSpace=wrap;html=1;" parent="alfVSQqw5zvKO4nv5Tz3-58" vertex="1">
          <mxGeometry y="26" width="160" height="30" as="geometry" />
        </mxCell>
        <mxCell id="alfVSQqw5zvKO4nv5Tz3-59" value="FR | USER_ID" style="text;strokeColor=none;fillColor=none;spacingLeft=4;spacingRight=4;overflow=hidden;rotatable=0;points=[[0,0.5],[1,0.5]];portConstraint=eastwest;fontSize=12;whiteSpace=wrap;html=1;" parent="alfVSQqw5zvKO4nv5Tz3-58" vertex="1">
          <mxGeometry y="56" width="160" height="33" as="geometry" />
        </mxCell>
        <mxCell id="alfVSQqw5zvKO4nv5Tz3-61" value="TITLE" style="text;strokeColor=none;fillColor=none;spacingLeft=4;spacingRight=4;overflow=hidden;rotatable=0;points=[[0,0.5],[1,0.5]];portConstraint=eastwest;fontSize=12;whiteSpace=wrap;html=1;" parent="alfVSQqw5zvKO4nv5Tz3-58" vertex="1">
          <mxGeometry y="89" width="160" height="30" as="geometry" />
        </mxCell>
        <mxCell id="alfVSQqw5zvKO4nv5Tz3-62" value="CONTENT" style="text;strokeColor=none;fillColor=none;spacingLeft=4;spacingRight=4;overflow=hidden;rotatable=0;points=[[0,0.5],[1,0.5]];portConstraint=eastwest;fontSize=12;whiteSpace=wrap;html=1;" parent="alfVSQqw5zvKO4nv5Tz3-58" vertex="1">
          <mxGeometry y="119" width="160" height="41" as="geometry" />
        </mxCell>
        <mxCell id="alfVSQqw5zvKO4nv5Tz3-65" value="MAJOR" style="swimlane;fontStyle=0;childLayout=stackLayout;horizontal=1;startSize=26;horizontalStack=0;resizeParent=1;resizeParentMax=0;resizeLast=0;collapsible=1;marginBottom=0;align=center;fontSize=14;" parent="1" vertex="1">
          <mxGeometry x="100" y="90" width="160" height="100" as="geometry" />
        </mxCell>
        <mxCell id="alfVSQqw5zvKO4nv5Tz3-67" value="PK | USER_ID" style="text;strokeColor=none;fillColor=none;spacingLeft=4;spacingRight=4;overflow=hidden;rotatable=0;points=[[0,0.5],[1,0.5]];portConstraint=eastwest;fontSize=12;whiteSpace=wrap;html=1;" parent="alfVSQqw5zvKO4nv5Tz3-65" vertex="1">
          <mxGeometry y="26" width="160" height="33" as="geometry" />
        </mxCell>
        <mxCell id="alfVSQqw5zvKO4nv5Tz3-69" value="FR | MAJOR" style="text;strokeColor=none;fillColor=none;spacingLeft=4;spacingRight=4;overflow=hidden;rotatable=0;points=[[0,0.5],[1,0.5]];portConstraint=eastwest;fontSize=12;whiteSpace=wrap;html=1;" parent="alfVSQqw5zvKO4nv5Tz3-65" vertex="1">
          <mxGeometry y="59" width="160" height="41" as="geometry" />
        </mxCell>
        <mxCell id="alfVSQqw5zvKO4nv5Tz3-78" value="DEPARTMENT STRUCTURE " style="swimlane;fontStyle=0;childLayout=stackLayout;horizontal=1;startSize=26;horizontalStack=0;resizeParent=1;resizeParentMax=0;resizeLast=0;collapsible=1;marginBottom=0;align=center;fontSize=14;" parent="1" vertex="1">
          <mxGeometry x="510" y="100" width="230" height="108" as="geometry" />
        </mxCell>
        <mxCell id="alfVSQqw5zvKO4nv5Tz3-80" value="PK | MAJOR(학과)" style="text;strokeColor=none;fillColor=none;spacingLeft=4;spacingRight=4;overflow=hidden;rotatable=0;points=[[0,0.5],[1,0.5]];portConstraint=eastwest;fontSize=12;whiteSpace=wrap;html=1;" parent="alfVSQqw5zvKO4nv5Tz3-78" vertex="1">
          <mxGeometry y="26" width="230" height="41" as="geometry" />
        </mxCell>
        <mxCell id="alfVSQqw5zvKO4nv5Tz3-81" value="DPARTMENT(대학 EX)과기대,상경대...)" style="text;strokeColor=none;fillColor=none;spacingLeft=4;spacingRight=4;overflow=hidden;rotatable=0;points=[[0,0.5],[1,0.5]];portConstraint=eastwest;fontSize=12;whiteSpace=wrap;html=1;" parent="alfVSQqw5zvKO4nv5Tz3-78" vertex="1">
          <mxGeometry y="67" width="230" height="41" as="geometry" />
        </mxCell>
        <mxCell id="alfVSQqw5zvKO4nv5Tz3-86" value="" style="edgeStyle=entityRelationEdgeStyle;fontSize=12;html=1;endArrow=ERzeroToMany;endFill=1;rounded=0;entryX=0;entryY=0.5;entryDx=0;entryDy=0;exitX=1;exitY=0.5;exitDx=0;exitDy=0;" parent="1" source="alfVSQqw5zvKO4nv5Tz3-44" target="alfVSQqw5zvKO4nv5Tz3-59" edge="1">
          <mxGeometry width="100" height="100" relative="1" as="geometry">
            <mxPoint x="130" y="290" as="sourcePoint" />
            <mxPoint x="230" y="190" as="targetPoint" />
          </mxGeometry>
        </mxCell>
        <mxCell id="alfVSQqw5zvKO4nv5Tz3-87" value="GENERE" style="swimlane;fontStyle=0;childLayout=stackLayout;horizontal=1;startSize=26;horizontalStack=0;resizeParent=1;resizeParentMax=0;resizeLast=0;collapsible=1;marginBottom=0;align=center;fontSize=14;" parent="1" vertex="1">
          <mxGeometry x="310" y="489" width="160" height="141" as="geometry" />
        </mxCell>
        <mxCell id="alfVSQqw5zvKO4nv5Tz3-88" value="PK | USER_ID" style="text;strokeColor=none;fillColor=none;spacingLeft=4;spacingRight=4;overflow=hidden;rotatable=0;points=[[0,0.5],[1,0.5]];portConstraint=eastwest;fontSize=12;whiteSpace=wrap;html=1;" parent="alfVSQqw5zvKO4nv5Tz3-87" vertex="1">
          <mxGeometry y="26" width="160" height="33" as="geometry" />
        </mxCell>
        <mxCell id="alfVSQqw5zvKO4nv5Tz3-94" value="FK | GENERE" style="text;strokeColor=none;fillColor=none;spacingLeft=4;spacingRight=4;overflow=hidden;rotatable=0;points=[[0,0.5],[1,0.5]];portConstraint=eastwest;fontSize=12;whiteSpace=wrap;html=1;" parent="alfVSQqw5zvKO4nv5Tz3-87" vertex="1">
          <mxGeometry y="59" width="160" height="41" as="geometry" />
        </mxCell>
        <mxCell id="alfVSQqw5zvKO4nv5Tz3-89" value="FK | ARTIST_ID" style="text;strokeColor=none;fillColor=none;spacingLeft=4;spacingRight=4;overflow=hidden;rotatable=0;points=[[0,0.5],[1,0.5]];portConstraint=eastwest;fontSize=12;whiteSpace=wrap;html=1;" parent="alfVSQqw5zvKO4nv5Tz3-87" vertex="1">
          <mxGeometry y="100" width="160" height="41" as="geometry" />
        </mxCell>
        <mxCell id="alfVSQqw5zvKO4nv5Tz3-90" value="ARTIST" style="swimlane;fontStyle=0;childLayout=stackLayout;horizontal=1;startSize=26;horizontalStack=0;resizeParent=1;resizeParentMax=0;resizeLast=0;collapsible=1;marginBottom=0;align=center;fontSize=14;" parent="1" vertex="1">
          <mxGeometry x="570" y="480" width="160" height="141" as="geometry" />
        </mxCell>
        <mxCell id="alfVSQqw5zvKO4nv5Tz3-91" value="PK | ARTIST_ID" style="text;strokeColor=none;fillColor=none;spacingLeft=4;spacingRight=4;overflow=hidden;rotatable=0;points=[[0,0.5],[1,0.5]];portConstraint=eastwest;fontSize=12;whiteSpace=wrap;html=1;" parent="alfVSQqw5zvKO4nv5Tz3-90" vertex="1">
          <mxGeometry y="26" width="160" height="33" as="geometry" />
        </mxCell>
        <mxCell id="alfVSQqw5zvKO4nv5Tz3-93" value="&amp;nbsp;NAME" style="text;strokeColor=none;fillColor=none;spacingLeft=4;spacingRight=4;overflow=hidden;rotatable=0;points=[[0,0.5],[1,0.5]];portConstraint=eastwest;fontSize=12;whiteSpace=wrap;html=1;" parent="alfVSQqw5zvKO4nv5Tz3-90" vertex="1">
          <mxGeometry y="59" width="160" height="41" as="geometry" />
        </mxCell>
        <mxCell id="alfVSQqw5zvKO4nv5Tz3-92" value="GENERE" style="text;strokeColor=none;fillColor=none;spacingLeft=4;spacingRight=4;overflow=hidden;rotatable=0;points=[[0,0.5],[1,0.5]];portConstraint=eastwest;fontSize=12;whiteSpace=wrap;html=1;" parent="alfVSQqw5zvKO4nv5Tz3-90" vertex="1">
          <mxGeometry y="100" width="160" height="41" as="geometry" />
        </mxCell>
        <mxCell id="aGTRlmJF9MWxgxKPOHuP-1" value="" style="endArrow=none;html=1;rounded=0;exitX=0.498;exitY=1.059;exitDx=0;exitDy=0;exitPerimeter=0;entryX=-0.037;entryY=0.298;entryDx=0;entryDy=0;entryPerimeter=0;" edge="1" parent="1" source="alfVSQqw5zvKO4nv5Tz3-48" target="alfVSQqw5zvKO4nv5Tz3-94">
          <mxGeometry width="50" height="50" relative="1" as="geometry">
            <mxPoint x="320" y="510" as="sourcePoint" />
            <mxPoint x="370" y="460" as="targetPoint" />
            <Array as="points">
              <mxPoint x="200" y="561" />
            </Array>
          </mxGeometry>
        </mxCell>
        <mxCell id="aGTRlmJF9MWxgxKPOHuP-2" value="" style="endArrow=none;html=1;rounded=0;entryX=0;entryY=0.5;entryDx=0;entryDy=0;exitX=1;exitY=0.5;exitDx=0;exitDy=0;" edge="1" parent="1" source="alfVSQqw5zvKO4nv5Tz3-87" target="alfVSQqw5zvKO4nv5Tz3-93">
          <mxGeometry width="50" height="50" relative="1" as="geometry">
            <mxPoint x="320" y="510" as="sourcePoint" />
            <mxPoint x="370" y="460" as="targetPoint" />
          </mxGeometry>
        </mxCell>
        <mxCell id="aGTRlmJF9MWxgxKPOHuP-4" value="" style="edgeStyle=entityRelationEdgeStyle;fontSize=12;html=1;endArrow=ERzeroToMany;startArrow=ERzeroToOne;rounded=0;entryX=1.018;entryY=-0.132;entryDx=0;entryDy=0;entryPerimeter=0;exitX=0;exitY=0.5;exitDx=0;exitDy=0;" edge="1" parent="1" source="alfVSQqw5zvKO4nv5Tz3-80" target="alfVSQqw5zvKO4nv5Tz3-69">
          <mxGeometry width="100" height="100" relative="1" as="geometry">
            <mxPoint x="390" y="350" as="sourcePoint" />
            <mxPoint x="490" y="250" as="targetPoint" />
          </mxGeometry>
        </mxCell>
        <mxCell id="aGTRlmJF9MWxgxKPOHuP-5" value="" style="edgeStyle=entityRelationEdgeStyle;fontSize=12;html=1;endArrow=ERoneToMany;rounded=0;entryX=0.513;entryY=1.176;entryDx=0;entryDy=0;entryPerimeter=0;exitX=0.5;exitY=0;exitDx=0;exitDy=0;" edge="1" parent="1" source="alfVSQqw5zvKO4nv5Tz3-42" target="alfVSQqw5zvKO4nv5Tz3-69">
          <mxGeometry width="100" height="100" relative="1" as="geometry">
            <mxPoint x="390" y="350" as="sourcePoint" />
            <mxPoint x="490" y="250" as="targetPoint" />
            <Array as="points">
              <mxPoint x="180" y="270" />
              <mxPoint x="182" y="270" />
              <mxPoint x="170" y="240" />
            </Array>
          </mxGeometry>
        </mxCell>
      </root>
    </mxGraphModel>
  </diagram>
</mxfile>
